<?xml version="1.0" encoding="UTF-8" standalone="no"?>
<svg
   width="1500"
   height="1500"
   viewBox="0 0 396.87499 396.875"
   version="1.1"
   id="svg1"
   xml:space="preserve"
   sodipodi:docname="Icon.svg"
   inkscape:version="1.4.2 (f4327f4, 2025-05-13)"
   xmlns:inkscape="http://www.inkscape.org/namespaces/inkscape"
   xmlns:sodipodi="http://sodipodi.sourceforge.net/DTD/sodipodi-0.dtd"
   xmlns:xlink="http://www.w3.org/1999/xlink"
   xmlns="http://www.w3.org/2000/svg"
   xmlns:svg="http://www.w3.org/2000/svg"><sodipodi:namedview
     id="namedview1"
     pagecolor="#ffffff"
     bordercolor="#000000"
     borderopacity="0.25"
     inkscape:showpageshadow="2"
     inkscape:pageopacity="0.0"
     inkscape:pagecheckerboard="0"
     inkscape:deskcolor="#d1d1d1"
     inkscape:document-units="px"
     inkscape:zoom="0.5"
     inkscape:cx="799"
     inkscape:cy="783"
     inkscape:window-width="1920"
     inkscape:window-height="1051"
     inkscape:window-x="-9"
     inkscape:window-y="-9"
     inkscape:window-maximized="1"
     inkscape:current-layer="layer3" /><defs
     id="defs1"><inkscape:path-effect
       effect="mirror_symmetry"
       start_point="217.01778,233.90631"
       end_point="230.33348,370.62369"
       center_point="223.67563,302.265"
       id="path-effect16"
       is_visible="true"
       lpeversion="1.2"
       lpesatellites=""
       mode="free"
       discard_orig_path="false"
       fuse_paths="true"
       oposite_fuse="false"
       split_items="false"
       split_open="false"
       link_styles="false" /><linearGradient
       id="linearGradient13"
       inkscape:collect="always"><stop
         style="stop-color:#f21b46;stop-opacity:1;"
         offset="0"
         id="stop14" /><stop
         style="stop-color:#bf0046;stop-opacity:1;"
         offset="1"
         id="stop15" /></linearGradient><linearGradient
       id="linearGradient12"
       inkscape:collect="always"><stop
         style="stop-color:#f21b46;stop-opacity:1;"
         offset="0"
         id="stop12" /><stop
         style="stop-color:#bf0046;stop-opacity:1;"
         offset="1"
         id="stop13" /></linearGradient><pattern
       inkscape:collect="always"
       xlink:href="#squares-1"
       preserveAspectRatio="xMidYMid"
       id="pattern12"
       patternTransform="matrix(0.3,0,0,0.3,625,105)" /><pattern
       patternUnits="userSpaceOnUse"
       width="140"
       height="140"
       patternTransform="translate(625,105) scale(0.3)"
       preserveAspectRatio="xMidYMid"
       id="squares-1"
       style="fill:#000000"
       inkscape:label="Cuadrado 1"
       inkscape:collect="always"
       inkscape:isstock="true"><path
         style="stroke:none;paint-order:stroke markers fill"
         d="M 35,0 H 0 V 35 70 H 35 70 V 35 H 35 Z m 70,70 H 70 V 35 0 h 35 35 V 35 H 105 Z M 35,140 H 70 V 105 70 H 35 0 v 35 h 35 z m 70,-70 h 35 v 35 35 H 105 70 v -35 h 35 z"
         id="path18-7-6"
         sodipodi:nodetypes="ccccccccc" /></pattern><clipPath
       clipPathUnits="userSpaceOnUse"
       id="clipPath25"><rect
         style="fill:#ff0000;stroke:none;stroke-width:3;stroke-linecap:square;stroke-linejoin:miter;paint-order:stroke markers fill;stop-color:#000000"
         id="rect25-8"
         width="78"
         height="45.033199"
         x="763.61322"
         y="452.82422" /></clipPath><pattern
       inkscape:collect="always"
       xlink:href="#pattern6-7"
       preserveAspectRatio="xMidYMid"
       id="pattern4"
       patternTransform="matrix(0.99735167,0,0,0.99735167,189.8682,350)"
       x="0"
       y="0" /><pattern
       patternUnits="userSpaceOnUse"
       width="29"
       height="20"
       patternTransform="translate(190,350)"
       preserveAspectRatio="xMidYMid"
       style="fill:#16044d"
       id="pattern6-7"
       inkscape:label="pattern6-7"
       inkscape:collect="always"
       inkscape:isstock="true"><path
         style="fill:none;stroke:#000000;stroke-width:10;stroke-linecap:butt;stroke-dasharray:none;paint-order:stroke markers fill;stop-color:#000000"
         d="M 0,5 C 19,5 10,15 29,15"
         id="path4-2"
         sodipodi:nodetypes="cc" /></pattern><inkscape:path-effect
       effect="mirror_symmetry"
       start_point="217.01778,233.90631"
       end_point="230.33348,370.62369"
       center_point="223.67563,302.265"
       id="path-effect2"
       is_visible="true"
       lpeversion="1.2"
       lpesatellites=""
       mode="free"
       discard_orig_path="false"
       fuse_paths="true"
       oposite_fuse="false"
       split_items="false"
       split_open="false"
       link_styles="false" /><radialGradient
       inkscape:collect="always"
       xlink:href="#linearGradient12"
       id="radialGradient13"
       cx="73.786865"
       cy="134.74628"
       fx="73.786865"
       fy="134.74628"
       r="94.966938"
       gradientTransform="matrix(0.80497592,0.47920183,-0.43029201,0.7228159,70.475377,-4.290836)"
       gradientUnits="userSpaceOnUse" /><radialGradient
       inkscape:collect="always"
       xlink:href="#linearGradient13"
       id="radialGradient15"
       cx="219.33229"
       cy="321.91534"
       fx="219.33229"
       fy="321.91534"
       r="198.64363"
       gradientTransform="matrix(1.0971917,-0.24076968,0.11422597,0.52052974,-55.6524,182.27121)"
       gradientUnits="userSpaceOnUse" /></defs><g
     inkscape:label="Cara Malvada Malvadita"
     inkscape:groupmode="layer"
     id="layer1"
     style="display:inline"><path
       style="display:inline;fill:url(#radialGradient15);stroke:url(#pattern12);stroke-width:1.33504;stroke-linecap:butt;stroke-linejoin:miter;stroke-dasharray:none;stroke-opacity:1"
       d="m 230.56845,372.8852 c 0,0 51.2559,-5.58303 73.72191,-17.04832 37.21693,-18.99326 75.38484,-45.1838 94.52646,-82.32466 16.7352,-32.47165 10.66454,-109.07128 10.66454,-109.07128 0,0 -19.22572,19.76995 -30.96824,26.68189 -27.5001,16.18726 -58.88977,25.28817 -89.83395,33.08179 -23.3796,5.88841 -71.61402,10.13714 -71.61882,10.13756 -0.005,5.4e-4 -48.15279,5.13902 -72.22923,3.87264 -31.8665,-1.67613 -64.422369,-4.54901 -94.529155,-15.1256 -12.855568,-4.51619 -35.5348,-20.20477 -35.5348,-20.20477 0,0 8.824183,76.33145 31.51064,104.96359 25.948619,32.74926 68.452975,51.08266 108.635435,62.53755 24.25614,6.91474 75.62607,2.50245 75.62607,2.50245"
       id="path2"
       inkscape:label="Sonrisa"
       sodipodi:nodetypes="caacaac"
       inkscape:path-effect="#path-effect2"
       inkscape:original-d="m 217.06035,234.34218 c 0,0 -48.15153,5.13909 -72.22923,3.87264 -31.8665,-1.67613 -64.422369,-4.54901 -94.529155,-15.1256 -12.855568,-4.51619 -35.5348,-20.20477 -35.5348,-20.20477 0,0 8.824183,76.33145 31.51064,104.96359 25.948619,32.74926 68.452975,51.08266 108.635435,62.53755 24.25614,6.91474 75.62607,2.50245 75.62607,2.50245"
       transform="matrix(0.98814651,0.01729038,-0.01729038,0.98814651,-8.0779765,1.4384155)" /><g
       inkscape:groupmode="layer"
       id="layer3"
       inkscape:label="Ojos"><use
         x="0"
         y="0"
         xlink:href="#path1"
         id="use2"
         transform="matrix(-0.98966421,0.14340415,0.14340415,0.98966421,382.31881,-29.456074)"
         inkscape:label="Ojo Derecho"
         inkscape:transform-center-x="-90.572126"
         inkscape:transform-center-y="-37.886207"
         style="stroke-width:1.00012;stroke-dasharray:none" /><path
         style="fill:url(#radialGradient13);fill-opacity:1;stroke:url(#pattern4);stroke-width:1.31942;stroke-linecap:butt;stroke-linejoin:miter;stroke-dasharray:none;stroke-opacity:1"
         d="m 49.797851,34.229968 c 0,0 -6.385749,19.244172 -2.373797,27.538281 14.956556,30.920445 55.096276,41.760281 85.979876,56.792751 17.52215,8.52884 55.45385,18.51419 55.45385,18.51419 0,0 -18.31261,26.57312 -31.31396,35.52551 -15.33902,10.56206 -33.71121,19.66729 -52.33465,19.56198 C 78.478025,192.0115 49.459697,181.99287 30.412956,163.23657 11.714368,144.82311 -1.2460585,116.40837 0.89067837,90.252551 2.2539567,73.564648 15.052754,59.057437 27.034331,47.361863 33.302887,41.242937 49.797851,34.229968 49.797851,34.229968 Z"
         id="path1"
         inkscape:label="Ojo Izquierdo"
         sodipodi:nodetypes="caacaaaaac" /></g></g></svg>
